<mxfile host="app.diagrams.net" modified="2024-07-09T21:48:51.691Z" agent="Mozilla/5.0 (Windows NT 10.0; Win64; x64) AppleWebKit/537.36 (KHTML, like Gecko) Chrome/126.0.0.0 Safari/537.36" etag="TpjFt7OOPfZwDUyshHcT" version="24.5.2" type="device">
  <diagram name="Página-1" id="jF6E26zZh7UTkELLjBJD">
    <mxGraphModel dx="1035" dy="541" grid="1" gridSize="10" guides="1" tooltips="1" connect="1" arrows="1" fold="1" page="1" pageScale="1" pageWidth="827" pageHeight="1169" math="0" shadow="0">
      <root>
        <mxCell id="0" />
        <mxCell id="1" parent="0" />
        <mxCell id="TA8W0aGg3J8sw9UUgTWb-37" style="edgeStyle=orthogonalEdgeStyle;rounded=0;orthogonalLoop=1;jettySize=auto;html=1;exitX=0;exitY=0.75;exitDx=0;exitDy=0;entryX=1;entryY=1;entryDx=0;entryDy=0;" edge="1" parent="1" source="TA8W0aGg3J8sw9UUgTWb-5" target="TA8W0aGg3J8sw9UUgTWb-25">
          <mxGeometry relative="1" as="geometry" />
        </mxCell>
        <mxCell id="TA8W0aGg3J8sw9UUgTWb-5" value="Cliente" style="rounded=1;whiteSpace=wrap;html=1;absoluteArcSize=1;arcSize=14;strokeWidth=2;" vertex="1" parent="1">
          <mxGeometry x="90" y="40" width="90" height="90" as="geometry" />
        </mxCell>
        <mxCell id="TA8W0aGg3J8sw9UUgTWb-7" value="Serviço" style="rounded=1;whiteSpace=wrap;html=1;absoluteArcSize=1;arcSize=14;strokeWidth=2;" vertex="1" parent="1">
          <mxGeometry x="420" y="350" width="90" height="90" as="geometry" />
        </mxCell>
        <mxCell id="TA8W0aGg3J8sw9UUgTWb-19" style="edgeStyle=orthogonalEdgeStyle;rounded=0;orthogonalLoop=1;jettySize=auto;html=1;exitX=0.5;exitY=0;exitDx=0;exitDy=0;endArrow=none;endFill=0;" edge="1" parent="1" source="TA8W0aGg3J8sw9UUgTWb-8" target="TA8W0aGg3J8sw9UUgTWb-10">
          <mxGeometry relative="1" as="geometry" />
        </mxCell>
        <mxCell id="TA8W0aGg3J8sw9UUgTWb-38" style="edgeStyle=orthogonalEdgeStyle;rounded=0;orthogonalLoop=1;jettySize=auto;html=1;exitX=0;exitY=0.25;exitDx=0;exitDy=0;entryX=1;entryY=1;entryDx=0;entryDy=0;" edge="1" parent="1" source="TA8W0aGg3J8sw9UUgTWb-8" target="TA8W0aGg3J8sw9UUgTWb-27">
          <mxGeometry relative="1" as="geometry" />
        </mxCell>
        <mxCell id="TA8W0aGg3J8sw9UUgTWb-39" style="edgeStyle=orthogonalEdgeStyle;rounded=0;orthogonalLoop=1;jettySize=auto;html=1;exitX=0;exitY=0.75;exitDx=0;exitDy=0;entryX=1;entryY=1;entryDx=0;entryDy=0;" edge="1" parent="1" source="TA8W0aGg3J8sw9UUgTWb-8" target="TA8W0aGg3J8sw9UUgTWb-28">
          <mxGeometry relative="1" as="geometry" />
        </mxCell>
        <mxCell id="TA8W0aGg3J8sw9UUgTWb-8" value="Agendamento" style="rounded=1;whiteSpace=wrap;html=1;absoluteArcSize=1;arcSize=14;strokeWidth=2;" vertex="1" parent="1">
          <mxGeometry x="90" y="350" width="90" height="90" as="geometry" />
        </mxCell>
        <mxCell id="TA8W0aGg3J8sw9UUgTWb-9" value="Barbeiro" style="rounded=1;whiteSpace=wrap;html=1;absoluteArcSize=1;arcSize=14;strokeWidth=2;" vertex="1" parent="1">
          <mxGeometry x="420" y="40" width="90" height="90" as="geometry" />
        </mxCell>
        <mxCell id="TA8W0aGg3J8sw9UUgTWb-20" style="edgeStyle=orthogonalEdgeStyle;rounded=0;orthogonalLoop=1;jettySize=auto;html=1;entryX=0.5;entryY=1;entryDx=0;entryDy=0;endArrow=none;endFill=0;" edge="1" parent="1" source="TA8W0aGg3J8sw9UUgTWb-10" target="TA8W0aGg3J8sw9UUgTWb-5">
          <mxGeometry relative="1" as="geometry" />
        </mxCell>
        <mxCell id="TA8W0aGg3J8sw9UUgTWb-10" value="Faz" style="strokeWidth=2;html=1;shape=mxgraph.flowchart.decision;whiteSpace=wrap;" vertex="1" parent="1">
          <mxGeometry x="90" y="200" width="90" height="90" as="geometry" />
        </mxCell>
        <mxCell id="TA8W0aGg3J8sw9UUgTWb-11" value="Executa" style="strokeWidth=2;html=1;shape=mxgraph.flowchart.decision;whiteSpace=wrap;" vertex="1" parent="1">
          <mxGeometry x="420" y="200" width="90" height="90" as="geometry" />
        </mxCell>
        <mxCell id="TA8W0aGg3J8sw9UUgTWb-13" style="edgeStyle=orthogonalEdgeStyle;rounded=0;orthogonalLoop=1;jettySize=auto;html=1;exitX=0;exitY=0.5;exitDx=0;exitDy=0;exitPerimeter=0;endArrow=none;endFill=0;" edge="1" parent="1" source="TA8W0aGg3J8sw9UUgTWb-12" target="TA8W0aGg3J8sw9UUgTWb-8">
          <mxGeometry relative="1" as="geometry" />
        </mxCell>
        <mxCell id="TA8W0aGg3J8sw9UUgTWb-14" style="edgeStyle=orthogonalEdgeStyle;rounded=0;orthogonalLoop=1;jettySize=auto;html=1;exitX=1;exitY=0.5;exitDx=0;exitDy=0;exitPerimeter=0;entryX=0;entryY=0.5;entryDx=0;entryDy=0;endArrow=none;endFill=0;" edge="1" parent="1" source="TA8W0aGg3J8sw9UUgTWb-12" target="TA8W0aGg3J8sw9UUgTWb-7">
          <mxGeometry relative="1" as="geometry" />
        </mxCell>
        <mxCell id="TA8W0aGg3J8sw9UUgTWb-12" value="Recebe" style="strokeWidth=2;html=1;shape=mxgraph.flowchart.decision;whiteSpace=wrap;" vertex="1" parent="1">
          <mxGeometry x="240" y="350" width="90" height="90" as="geometry" />
        </mxCell>
        <mxCell id="TA8W0aGg3J8sw9UUgTWb-16" style="edgeStyle=orthogonalEdgeStyle;rounded=0;orthogonalLoop=1;jettySize=auto;html=1;exitX=0.5;exitY=0;exitDx=0;exitDy=0;entryX=0.5;entryY=1;entryDx=0;entryDy=0;entryPerimeter=0;endArrow=none;endFill=0;" edge="1" parent="1" source="TA8W0aGg3J8sw9UUgTWb-7" target="TA8W0aGg3J8sw9UUgTWb-11">
          <mxGeometry relative="1" as="geometry" />
        </mxCell>
        <mxCell id="TA8W0aGg3J8sw9UUgTWb-18" style="edgeStyle=orthogonalEdgeStyle;rounded=0;orthogonalLoop=1;jettySize=auto;html=1;exitX=0.5;exitY=1;exitDx=0;exitDy=0;entryX=0.5;entryY=0;entryDx=0;entryDy=0;entryPerimeter=0;endArrow=none;endFill=0;" edge="1" parent="1" source="TA8W0aGg3J8sw9UUgTWb-9" target="TA8W0aGg3J8sw9UUgTWb-11">
          <mxGeometry relative="1" as="geometry" />
        </mxCell>
        <mxCell id="TA8W0aGg3J8sw9UUgTWb-34" style="edgeStyle=orthogonalEdgeStyle;rounded=0;orthogonalLoop=1;jettySize=auto;html=1;exitX=1;exitY=0.5;exitDx=0;exitDy=0;entryX=0;entryY=0.25;entryDx=0;entryDy=0;endArrow=none;endFill=0;" edge="1" parent="1" source="TA8W0aGg3J8sw9UUgTWb-23" target="TA8W0aGg3J8sw9UUgTWb-5">
          <mxGeometry relative="1" as="geometry" />
        </mxCell>
        <mxCell id="TA8W0aGg3J8sw9UUgTWb-23" value="Nome" style="ellipse;whiteSpace=wrap;html=1;align=center;" vertex="1" parent="1">
          <mxGeometry y="40" width="60" height="30" as="geometry" />
        </mxCell>
        <mxCell id="TA8W0aGg3J8sw9UUgTWb-24" value="Nome" style="ellipse;whiteSpace=wrap;html=1;align=center;" vertex="1" parent="1">
          <mxGeometry x="530" y="40" width="60" height="30" as="geometry" />
        </mxCell>
        <mxCell id="TA8W0aGg3J8sw9UUgTWb-25" value="Telefone" style="ellipse;whiteSpace=wrap;html=1;align=center;" vertex="1" parent="1">
          <mxGeometry y="90" width="60" height="30" as="geometry" />
        </mxCell>
        <mxCell id="TA8W0aGg3J8sw9UUgTWb-51" style="edgeStyle=orthogonalEdgeStyle;rounded=0;orthogonalLoop=1;jettySize=auto;html=1;exitX=0;exitY=0.5;exitDx=0;exitDy=0;entryX=1;entryY=0.75;entryDx=0;entryDy=0;endArrow=none;endFill=0;" edge="1" parent="1" source="TA8W0aGg3J8sw9UUgTWb-26" target="TA8W0aGg3J8sw9UUgTWb-9">
          <mxGeometry relative="1" as="geometry" />
        </mxCell>
        <mxCell id="TA8W0aGg3J8sw9UUgTWb-26" value="CPF" style="ellipse;whiteSpace=wrap;html=1;align=center;" vertex="1" parent="1">
          <mxGeometry x="530" y="90" width="60" height="30" as="geometry" />
        </mxCell>
        <mxCell id="TA8W0aGg3J8sw9UUgTWb-27" value="Data" style="ellipse;whiteSpace=wrap;html=1;align=center;" vertex="1" parent="1">
          <mxGeometry x="10" y="350" width="60" height="30" as="geometry" />
        </mxCell>
        <mxCell id="TA8W0aGg3J8sw9UUgTWb-28" value="Hora" style="ellipse;whiteSpace=wrap;html=1;align=center;" vertex="1" parent="1">
          <mxGeometry x="10" y="400" width="60" height="30" as="geometry" />
        </mxCell>
        <mxCell id="TA8W0aGg3J8sw9UUgTWb-42" style="edgeStyle=orthogonalEdgeStyle;rounded=0;orthogonalLoop=1;jettySize=auto;html=1;exitX=1;exitY=0;exitDx=0;exitDy=0;entryX=0;entryY=1;entryDx=0;entryDy=0;endArrow=none;endFill=0;" edge="1" parent="1" source="TA8W0aGg3J8sw9UUgTWb-29" target="TA8W0aGg3J8sw9UUgTWb-8">
          <mxGeometry relative="1" as="geometry" />
        </mxCell>
        <mxCell id="TA8W0aGg3J8sw9UUgTWb-29" value="Cliente" style="ellipse;whiteSpace=wrap;html=1;align=center;" vertex="1" parent="1">
          <mxGeometry x="10" y="460" width="60" height="30" as="geometry" />
        </mxCell>
        <mxCell id="TA8W0aGg3J8sw9UUgTWb-45" style="edgeStyle=orthogonalEdgeStyle;rounded=0;orthogonalLoop=1;jettySize=auto;html=1;exitX=0.5;exitY=0;exitDx=0;exitDy=0;entryX=0.75;entryY=1;entryDx=0;entryDy=0;endArrow=none;endFill=0;" edge="1" parent="1" source="TA8W0aGg3J8sw9UUgTWb-30" target="TA8W0aGg3J8sw9UUgTWb-8">
          <mxGeometry relative="1" as="geometry" />
        </mxCell>
        <mxCell id="TA8W0aGg3J8sw9UUgTWb-30" value="Barbeiro" style="ellipse;whiteSpace=wrap;html=1;align=center;" vertex="1" parent="1">
          <mxGeometry x="150" y="480" width="60" height="30" as="geometry" />
        </mxCell>
        <mxCell id="TA8W0aGg3J8sw9UUgTWb-46" style="edgeStyle=orthogonalEdgeStyle;rounded=0;orthogonalLoop=1;jettySize=auto;html=1;exitX=0.5;exitY=0;exitDx=0;exitDy=0;entryX=0.5;entryY=1;entryDx=0;entryDy=0;endArrow=none;endFill=0;" edge="1" parent="1" source="TA8W0aGg3J8sw9UUgTWb-31" target="TA8W0aGg3J8sw9UUgTWb-8">
          <mxGeometry relative="1" as="geometry" />
        </mxCell>
        <mxCell id="TA8W0aGg3J8sw9UUgTWb-31" value="Serviço" style="ellipse;whiteSpace=wrap;html=1;align=center;" vertex="1" parent="1">
          <mxGeometry x="80" y="480" width="60" height="30" as="geometry" />
        </mxCell>
        <mxCell id="TA8W0aGg3J8sw9UUgTWb-47" style="edgeStyle=orthogonalEdgeStyle;rounded=0;orthogonalLoop=1;jettySize=auto;html=1;exitX=0;exitY=0.5;exitDx=0;exitDy=0;entryX=1;entryY=0.75;entryDx=0;entryDy=0;endArrow=none;endFill=0;" edge="1" parent="1" source="TA8W0aGg3J8sw9UUgTWb-32" target="TA8W0aGg3J8sw9UUgTWb-7">
          <mxGeometry relative="1" as="geometry" />
        </mxCell>
        <mxCell id="TA8W0aGg3J8sw9UUgTWb-32" value="Preço" style="ellipse;whiteSpace=wrap;html=1;align=center;" vertex="1" parent="1">
          <mxGeometry x="530" y="410" width="60" height="30" as="geometry" />
        </mxCell>
        <mxCell id="TA8W0aGg3J8sw9UUgTWb-48" style="edgeStyle=orthogonalEdgeStyle;rounded=0;orthogonalLoop=1;jettySize=auto;html=1;exitX=0;exitY=0.5;exitDx=0;exitDy=0;entryX=1;entryY=0.25;entryDx=0;entryDy=0;endArrow=none;endFill=0;" edge="1" parent="1" source="TA8W0aGg3J8sw9UUgTWb-33" target="TA8W0aGg3J8sw9UUgTWb-7">
          <mxGeometry relative="1" as="geometry" />
        </mxCell>
        <mxCell id="TA8W0aGg3J8sw9UUgTWb-33" value="Nome" style="ellipse;whiteSpace=wrap;html=1;align=center;" vertex="1" parent="1">
          <mxGeometry x="530" y="350" width="60" height="30" as="geometry" />
        </mxCell>
        <mxCell id="TA8W0aGg3J8sw9UUgTWb-50" style="edgeStyle=orthogonalEdgeStyle;rounded=0;orthogonalLoop=1;jettySize=auto;html=1;exitX=0;exitY=0.5;exitDx=0;exitDy=0;entryX=1.01;entryY=0.146;entryDx=0;entryDy=0;entryPerimeter=0;endArrow=none;endFill=0;" edge="1" parent="1" source="TA8W0aGg3J8sw9UUgTWb-24" target="TA8W0aGg3J8sw9UUgTWb-9">
          <mxGeometry relative="1" as="geometry" />
        </mxCell>
        <mxCell id="TA8W0aGg3J8sw9UUgTWb-52" value="CPF" style="ellipse;whiteSpace=wrap;html=1;align=center;" vertex="1" parent="1">
          <mxGeometry y="150" width="60" height="30" as="geometry" />
        </mxCell>
        <mxCell id="TA8W0aGg3J8sw9UUgTWb-53" style="edgeStyle=orthogonalEdgeStyle;rounded=0;orthogonalLoop=1;jettySize=auto;html=1;exitX=1;exitY=0.5;exitDx=0;exitDy=0;entryX=0.154;entryY=0.995;entryDx=0;entryDy=0;entryPerimeter=0;endArrow=none;endFill=0;" edge="1" parent="1" source="TA8W0aGg3J8sw9UUgTWb-52" target="TA8W0aGg3J8sw9UUgTWb-5">
          <mxGeometry relative="1" as="geometry" />
        </mxCell>
      </root>
    </mxGraphModel>
  </diagram>
</mxfile>
